<?xml version="1.0" encoding="UTF-8"?><svg id="Layer_2" xmlns="http://www.w3.org/2000/svg" xmlns:xlink="http://www.w3.org/1999/xlink" viewBox="0 0 178.83 144.35"><defs><style>.cls-1{fill:url(#linear-gradient);}.cls-1,.cls-2{stroke-width:0px;}.cls-2{fill:#410253;}</style><linearGradient id="linear-gradient" x1="-27.98" y1="-14.9" x2="170.93" y2="99.94" gradientUnits="userSpaceOnUse"><stop offset=".23" stop-color="#ff0075"/><stop offset=".27" stop-color="#ff0569"/><stop offset=".34" stop-color="#ff1349"/><stop offset=".41" stop-color="#ff2228"/><stop offset=".51" stop-color="#ff4a15"/><stop offset=".61" stop-color="#ff6c05"/><stop offset=".66" stop-color="#ff7900"/><stop offset=".7" stop-color="#ff880c"/><stop offset=".82" stop-color="#ffac2b"/><stop offset=".92" stop-color="#ffc23e"/><stop offset=".98" stop-color="#ffcb45"/></linearGradient></defs><g id="Layer_1-2"><path class="cls-1" d="m127.12,27.11l10.39,12.21c1.19,1.37,2.24,2.49,2.68,3.15,3.11,3.09,4.84,7.26,4.84,11.61-.29,5.13-3.64,8.63-6.72,12.37l-7.27,8.53-3.8,4.42c-.13.16-.23.34-.25.54s0,.41.1.59c.08.18.23.34.41.45.18.11.39.16.59.14h37.89c5.78,0,13.08,4.87,12.65,12.24,0,3.35-1.37,6.57-3.77,8.94-2.41,2.37-5.68,3.71-9.08,3.72h-59.34c-3.9,0-14.4.42-17.34-8.53-.63-1.87-.71-3.88-.24-5.8.86-2.83,2.21-5.5,3.99-7.87,2.99-4.42,6.22-8.85,9.4-13.14,4.11-5.62,8.33-11.05,12.47-16.78.14-.18.23-.42.23-.65s-.08-.47-.23-.65l-15.08-17.69c-.1-.13-.23-.23-.37-.3-.14-.07-.3-.11-.47-.11s-.33.04-.47.11-.28.18-.37.3c-4.04,5.38-21.72,29.17-25.49,33.99-3.77,4.82-13.05,5.09-18.2,0l-23.59-23.33c-.14-.14-.34-.25-.55-.29-.2-.04-.42-.02-.63.06-.19.08-.36.22-.48.4s-.18.39-.18.59v44.86c.06,3.18-.9,6.3-2.74,8.93-1.83,2.62-4.46,4.62-7.5,5.69-1.94.66-4.01.87-6.05.58-2.04-.29-3.98-1.05-5.65-2.22-1.68-1.17-3.05-2.72-3.99-4.52-.94-1.8-1.45-3.8-1.45-5.82V13.17c.13-2.9,1.19-5.7,3.04-7.98C6.34,2.91,8.85,1.26,11.7.48c2.43-.64,5-.64,7.44.02,2.43.65,4.65,1.93,6.42,3.7l36.25,35.77c.11.11.24.19.39.24s.3.07.46.06c.16-.01.3-.06.43-.13s.25-.18.34-.3L89.18,4.69c1.19-1.42,2.69-2.58,4.37-3.37,1.69-.8,3.53-1.22,5.41-1.24h67c1.83,0,3.64.4,5.31,1.14,1.66.75,3.16,1.84,4.36,3.21,1.21,1.36,2.11,2.96,2.64,4.69.53,1.74.67,3.56.43,5.34-.47,3.11-2.07,5.94-4.51,7.97-2.43,2.04-5.52,3.13-8.71,3.09h-37.52c-.19,0-.37.06-.53.16-.16.1-.29.24-.37.4-.08.17-.13.35-.12.53,0,.18.07.36.18.52h-.01Z"/><path class="cls-2" d="m118.91,141.18c-.12-.28-.28-.53-.5-.75-.22-.21-.48-.38-.76-.49-.28-.11-.58-.17-.89-.16h-10.19v-19.64c-.04-.59-.3-1.15-.72-1.57-.43-.42-.99-.68-1.6-.71h-1.09c-.61.02-1.19.26-1.62.69-.43.43-.69.99-.69,1.6v21.93c.02.6.27,1.17.69,1.6.43.43,1.01.67,1.62.69h13.6c.61-.02,1.19-.26,1.62-.69.43-.43.69-.99.69-1.6,0-.3-.05-.6-.17-.89Z"/><path class="cls-2" d="m91.78,141.18c-.12-.28-.28-.53-.5-.75-.22-.21-.48-.38-.76-.49-.28-.11-.58-.17-.89-.16h-10.19v-19.64c-.04-.59-.3-1.15-.72-1.57-.43-.42-.99-.68-1.6-.71h-1.09c-.61.02-1.19.26-1.62.69-.43.43-.69.99-.69,1.6v21.93c.02.6.27,1.17.69,1.6s1.01.67,1.62.69h13.6c.61-.02,1.19-.26,1.62-.69.43-.43.68-.99.69-1.6,0-.3-.05-.6-.17-.89Z"/><path class="cls-2" d="m176.86,119.26c-.12-.28-.28-.53-.5-.75-.22-.21-.48-.38-.76-.49s-.58-.17-.89-.16h-8.63s0,0,0,0h-1.09s0,0,0,0h-8.53c-1.24,0-2.35.93-2.41,2.16-.07,1.32.98,2.41,2.28,2.41h4.68c.92,0,1.67.75,1.67,1.67v17.97c.02.6.27,1.17.69,1.6.43.43,1.01.67,1.62.69h1.09c.61-.02,1.19-.26,1.62-.69.43-.43.69-.99.69-1.6v-17.97c0-.92.75-1.67,1.67-1.67h4.65c.61-.02,1.19-.26,1.62-.69.43-.43.69-.99.69-1.6,0-.3-.05-.6-.17-.89Z"/><path class="cls-2" d="m52.17,133.83h-.47c-.37,0-.73-.1-1.05-.28-.32-.18-.6-.42-.81-.71s-.35-.64-.4-.99-.02-.72.1-1.06l2.31-7s.02-.08.04-.11c.03-.03.07-.04.11-.04s.08.02.11.04.04.07.04.11l2.31,7c.08.35.08.72,0,1.08-.08.35-.23.69-.45.98-.22.29-.5.53-.83.7-.33.17-.69.27-1.05.29m3.93-14.46c-.16-.44-.45-.83-.84-1.09-.38-.28-.85-.42-1.33-.43h-4.02c-.48,0-.94.15-1.33.43-.38.28-.68.65-.84,1.09l-7.73,21.93c-.12.34-.15.71-.1,1.06.05.36.19.7.4.99s.48.54.81.71c.33.17.69.27,1.04.28h1.24c.48,0,.94-.15,1.33-.43.38-.28.68-.65.84-1.09l.93-2.89c.16-.44.45-.83.84-1.09.38-.28.85-.42,1.33-.43h6.33c.48,0,.94.15,1.33.43.38.28.68.65.84,1.09l.93,2.89c.16.44.45.83.84,1.09.38.28.85.42,1.33.43h1.24c.37,0,.73-.1,1.04-.28.33-.18.6-.42.81-.71s.35-.64.4-.99.02-.72-.09-1.06l-7.57-21.93h0Z"/><path class="cls-2" d="m16.02,117.88c.67,0,1.31,0,1.9.39.59.4.99,1,1.2,1.8l3.86,13.96c.13.46.32.7.57.7.34,0,.53-.25.57-.76l2.28-14.14c.13-.72.45-1.29.98-1.71.53-.42,1.13-.34,1.8-.34.84,0,1.55-.02,2.12.53.57.55.81,1.24.73,2.09l-3.92,20.84c-.17.93-.61,1.68-1.33,2.25-.72.57-1.52.55-2.4.55-.8,0-1.55.04-2.25-.49-.7-.53-1.21-1.23-1.55-2.12l-3.99-13.9c-.13-.46-.32-.7-.57-.7s-.44.23-.57.7l-3.99,13.9c-.34.89-.85,1.59-1.55,2.12-.7.53-1.44.49-2.25.49-.89,0-1.69.02-2.4-.55-.72-.57-1.16-1.32-1.33-2.25L.02,120.4c-.08-.84.16-1.54.73-2.09.57-.55,1.28-.53,2.12-.53.68,0,1.28-.08,1.8.34.53.42.85.99.98,1.71l2.28,14.14c.04.51.23.76.57.76.25,0,.44-.23.57-.7l3.86-13.96c.21-.8.61-1.4,1.2-1.8.59-.4,1.22-.39,1.9-.39Z"/><path class="cls-2" d="m142.89,139.75h-7.88c-.61-.02-1.19-.26-1.62-.69s-.69-.99-.69-1.6v-1.83c.02-.6.27-1.17.69-1.6.43-.43,1.01-.67,1.62-.69h6.74c.62,0,1.2-.24,1.64-.67s.68-1.01.68-1.61-.24-1.19-.68-1.61c-.43-.43-1.03-.67-1.64-.67h-6.8c-.61-.02-1.19-.26-1.62-.69s-.69-.99-.69-1.6v-1.83c.02-.6.27-1.17.69-1.6.43-.43,1.01-.67,1.62-.69h7.73c.62,0,1.2-.24,1.64-.67s.68-1.01.68-1.61-.24-1.19-.68-1.61-1.03-.67-1.64-.67h-9.28c-.36,0-.71.11-.99.33s-.48.53-.55.89l-4.95,23v.46c.08.53.38,1.02.8,1.35.43.34.97.51,1.51.48h13.6c.62,0,1.2-.24,1.64-.67s.68-1.01.68-1.61-.24-1.19-.68-1.61c-.43-.43-1.03-.67-1.64-.67h.06l.02-.03Z"/></g></svg>