<?xml version="1.0" encoding="UTF-8"?>
<svg version="1.1" xmlns="http://www.w3.org/2000/svg" width="1606" height="1628">
<path d="M0 0 C529.98 0 1059.96 0 1606 0 C1606 537.24 1606 1074.48 1606 1628 C1076.02 1628 546.04 1628 0 1628 C0 1090.76 0 553.52 0 0 Z " fill="#000000" transform="translate(0,0)"/>
<path d="M0 0 C4.28421842 3.67218722 8.30319085 7.17810289 12.2614975 11.13565636 C12.74528699 11.6179924 13.22907647 12.10032845 13.72752625 12.59728074 C15.33353171 14.19966285 16.93598489 15.80554862 18.53845215 17.41146851 C19.70661207 18.57847516 20.87498973 19.74526391 22.04356527 20.91185439 C25.24313028 24.10725432 28.43958041 27.30575416 31.63551211 30.50478745 C35.0870658 33.95860652 38.54149921 37.40954333 41.99555969 40.8608551 C48.75756684 47.61841765 55.51687011 54.37867853 62.27520525 61.13991331 C67.76894642 66.63591382 73.26366403 72.13093632 78.75907898 77.62526321 C79.54153672 78.40756772 80.32399446 79.18987223 81.13016304 79.99588294 C82.71978095 81.58518112 84.3094011 83.17447705 85.89902347 84.76377077 C100.80218124 99.66407754 115.70227337 114.56744687 130.6013183 129.47186597 C143.3804267 142.25544118 156.16215345 155.03639349 168.94580078 167.81542969 C183.79572878 182.66000373 198.64402999 197.50620186 213.48974657 212.35498774 C215.07346929 213.93902901 216.6571941 215.52306819 218.24092102 217.10710526 C219.02011433 217.88645284 219.79930763 218.66580042 220.60211286 219.4687646 C226.08828644 224.95580093 231.57561819 230.44167738 237.06340027 235.92710495 C243.75359628 242.61449362 250.44200203 249.30366669 257.12813365 255.99511908 C260.53834625 259.40795618 263.94934683 262.81999552 267.36252785 266.22986412 C270.48952305 269.35387056 273.61418371 272.48019273 276.73703128 275.60834511 C277.86460277 276.7370298 278.99300953 277.86488082 280.12235373 278.99179177 C285.36307371 284.22208927 290.50941544 289.47775036 295.32882082 295.10302806 C298.53447141 298.74179361 301.99866084 302.12848593 305.43455505 305.54808044 C306.2572465 306.37092075 307.07993795 307.19376105 307.92755944 308.04153591 C310.19025531 310.30366113 312.4551659 312.56354036 314.7210573 314.82246387 C317.17201713 317.26700925 319.6200362 319.71449654 322.06840515 322.16163635 C326.30379808 326.39415214 330.54095956 330.62489058 334.77929497 334.85445976 C340.90760973 340.9701918 347.03265868 347.08918642 353.15683294 353.20906437 C363.09522857 363.14040477 373.03549201 373.06987326 382.97729492 382.99780273 C383.57145937 383.59113937 384.16562381 384.184476 384.77779324 384.79579253 C388.99764733 389.00974325 393.21756774 393.22362756 397.4375 397.4375 C402.27015009 402.26321573 407.10276529 407.08896639 411.93530273 411.91479492 C412.53086279 412.50952685 413.12642284 413.10425877 413.74003016 413.71701287 C423.65448542 423.61780358 433.566993 433.52054204 443.47810131 443.42468315 C449.59164489 449.53373806 455.70696578 455.64100362 461.82456262 461.74599964 C466.00818629 465.92122585 470.19006606 470.09819318 474.37055063 474.27656244 C476.78546107 476.69012237 479.20121045 479.1028278 481.61912537 481.51337814 C484.23314296 484.1202478 486.84412414 486.7301201 489.45433044 489.34080505 C490.22774527 490.11062491 491.00116009 490.88044477 491.79801172 491.67359251 C492.49037394 492.36732908 493.18273617 493.06106565 493.89607906 493.77582455 C494.80171609 494.68007889 494.80171609 494.68007889 495.72564882 495.60260099 C497 497 497 497 497 498 C470.93439553 501.21965155 444.89962173 503.53067959 418.67181969 504.94283104 C406.46113895 505.61865952 394.37736456 506.52243358 382.24853516 508.10888672 C342.83814183 513.15871101 300.79971138 515.2409919 267.73397274 490.0497793 C221.82265416 454.04196344 182.73258447 408.24214388 145 364 C145.07827606 365.45157001 145.07827606 365.45157001 145.15813345 366.93246466 C147.46877158 409.96639314 149.57555194 453.00710402 150.76905823 496.08811951 C150.78739065 496.74928058 150.80572307 497.41044165 150.82461103 498.09163791 C151.22277338 512.49087909 151.58814509 526.89078011 151.92015984 541.29169444 C152.08338343 548.36282368 152.25378573 555.43377175 152.42797852 562.50463867 C152.45378407 563.55960439 152.45378407 563.55960439 152.48011095 564.63588254 C152.99874853 585.71094228 153.90039417 606.73942477 155.09793048 627.78626716 C156.9801303 660.97816686 158.15311521 694.1305739 158.18359375 727.37890625 C158.18630167 728.69759203 158.1890096 730.01627781 158.19179958 731.37492377 C158.24154731 806.64674005 146.51161206 860.80825336 92.22047424 915.24412537 C16.14161448 990 16.14161448 990 0 990 C0 663.3 0 336.6 0 0 Z " fill="#FEFEFE" transform="translate(883,319)"/>
<path d="M0 0 C0 326.37 0 652.74 0 989 C-53.68508339 962.15745831 -125.68600222 898.75020077 -145.41821194 841.3829813 C-156.67459092 805.16404882 -156.86139854 765.92366549 -156.79296875 728.33203125 C-156.79196967 726.99521247 -156.79098653 725.65839367 -156.79001933 724.32157487 C-156.74713927 691.55029199 -155.48201103 658.85881941 -153.68538393 626.14153348 C-152.52215852 604.95770611 -151.70879424 583.78873537 -151.20825195 562.57885742 C-151.19146387 561.87252244 -151.17467579 561.16618746 -151.15737898 560.43844839 C-150.98898894 553.33978966 -150.82667274 546.24100267 -150.66878774 539.14210294 C-150.34752828 524.70367228 -149.98595661 510.26634596 -149.59968567 495.82951355 C-149.58200785 495.16693473 -149.56433004 494.5043559 -149.54611653 493.82169893 C-148.37734357 450.18729631 -146.26866176 406.5893438 -144 363 C-144.58796169 363.68797623 -145.17592339 364.37595246 -145.7817021 365.08477646 C-266.8552031 506.38204317 -266.8552031 506.38204317 -325.26400757 510.94052124 C-345.42373471 511.886359 -365.39944086 510.37175957 -385.37151206 507.7235924 C-397.48212575 506.14911759 -409.61121852 505.45833487 -421.80009067 504.79368675 C-446.64696903 503.42122428 -471.31150655 501.09108724 -496 498 C-489.77761126 490.64790632 -489.77761126 490.64790632 -486.40063477 487.30297852 C-485.76299698 486.66864395 -485.12535919 486.03430939 -484.46839905 485.38075256 C-483.79949142 484.72014328 -483.1305838 484.059534 -482.44140625 483.37890625 C-481.73402817 482.67531479 -481.02665009 481.97172333 -480.2978363 481.24681091 C-477.30156801 478.26673342 -474.29934942 475.29267751 -471.29760742 472.31811523 C-469.09343156 470.13215768 -466.89236657 467.94310066 -464.69140625 465.75390625 C-464.02452286 465.0953212 -463.35763947 464.43673615 -462.67054749 463.75819397 C-462.02975754 463.12070724 -461.38896759 462.48322052 -460.72875977 461.82641602 C-460.17615982 461.27905289 -459.62355988 460.73168976 -459.05421448 460.16773987 C-457.30174428 458.31842006 -455.65091773 456.43045003 -453.99548244 454.49548244 C-449.55354498 449.4124789 -444.7989832 444.66670358 -440.01806641 439.90454102 C-439.01859675 438.90535187 -438.01934953 437.90594019 -437.02030373 436.90632725 C-434.29268997 434.17841975 -431.56198689 431.45362364 -428.83075047 428.72934389 C-425.87863533 425.78363141 -422.9294497 422.83498852 -419.97991943 419.88668823 C-414.87365968 414.78330901 -409.7656292 409.68170778 -404.65643311 404.58126831 C-397.26135667 397.19877267 -389.86954388 389.81301606 -382.47860742 382.42637599 C-370.47512445 370.4299535 -358.46977521 358.43540067 -346.46289062 346.44238281 C-345.74495653 345.72527653 -345.02702244 345.00817025 -344.28733277 344.26933348 C-338.46247427 338.45121932 -332.63752526 332.63319578 -326.81257248 326.81517601 C-321.72070912 321.72936544 -316.62888192 316.64351868 -311.53710938 311.55761719 C-310.82005333 310.84138927 -310.10299729 310.12516135 -309.36421227 309.38722956 C-297.40099592 297.43770718 -285.43974924 285.48621508 -273.47990227 273.53332043 C-266.10883335 266.16672727 -258.73599294 258.80191568 -251.36084414 251.43940711 C-246.30719119 246.39419121 -241.2553169 241.34719898 -236.20482779 236.29881597 C-233.29286434 233.38819496 -230.3800827 230.47840519 -227.46508026 227.57082748 C-224.79328501 224.90581168 -222.12383921 222.2384652 -219.45618892 219.56930053 C-218.04075342 218.15426231 -216.62284365 216.74170037 -215.20482826 215.32924747 C-210.87731961 210.99476311 -206.71775055 206.59638696 -202.72548938 201.95257759 C-199.49689237 198.29907138 -196.02367634 194.88652341 -192.57217407 191.44519043 C-191.75018819 190.62164456 -190.92820231 189.79809869 -190.08130777 188.94959688 C-187.82053754 186.68554918 -185.55756671 184.42372933 -183.29360175 182.16287708 C-180.84471014 179.71626051 -178.3987132 177.26675277 -175.95233154 174.81762695 C-171.16978476 170.03064732 -166.38455542 165.24635812 -161.59833939 160.46304744 C-157.71080647 156.57777648 -153.82425504 152.69152622 -149.93839645 148.80458069 C-149.38456136 148.25059236 -148.83072626 147.69660403 -148.26010828 147.12582818 C-147.13496252 146.00036268 -146.009819 144.87489495 -144.88467769 143.74942499 C-134.35148562 133.21338589 -123.8152382 122.6804065 -113.27793328 112.14848095 C-104.22960888 103.10463255 -95.18392166 94.05815338 -86.14013672 85.00976562 C-75.63402733 74.49831167 -65.12630685 63.98847261 -54.61598718 53.48122835 C-53.49689234 52.36245206 -52.37779959 51.24367368 -51.25870895 50.12489319 C-50.70809253 49.57443104 -50.1574761 49.02396888 -49.59017432 48.45682606 C-45.70284474 44.57036134 -41.81667967 40.68273452 -37.93095779 36.79466248 C-33.2035656 32.0644738 -28.47441237 27.33605447 -23.74295075 22.60993618 C-21.32739782 20.19702097 -18.91266918 17.78329536 -16.50008011 15.36741638 C-13.89098791 12.75561712 -11.27887654 10.14687684 -8.66592407 7.53894043 C-7.89542209 6.76620773 -7.12492011 5.99347503 -6.33106959 5.19732618 C-5.63671632 4.50558066 -4.94236305 3.81383513 -4.22696877 3.10112762 C-3.62359047 2.49791168 -3.02021217 1.89469573 -2.39854968 1.27320051 C-1 0 -1 0 0 0 Z " fill="#FEFEFE" transform="translate(723,319)"/>
</svg>
